<svg
   width="255.85307"
   height="255.76799"
   viewBox="0 0 67.694458 67.671945"
   version="1.1"
   id="svg1"
   xmlns="http://www.w3.org/2000/svg">
  <defs
     id="defs1" />
  <g
     id="layer1"
     transform="translate(0.01548974,-0.07060897)">
    <rect
       style="fill:#000140;fill-opacity:1;fill-rule:evenodd;stroke-width:0.180683;stroke-opacity:0.661323"
       id="rect16"
       width="67.694458"
       height="67.671944"
       x="-0.015489757"
       y="0.070608504" />
    <path
       style="font-size:52.9167px;font-family:Milky;-inkscape-font-specification:Milky;fill:#ffca80;fill-rule:evenodd;stroke-width:0.169796;stroke-opacity:0.661323"
       d="m 8.958346,25.346205 v 0.509388 h 9.067119 L 8.6187535,42.325827 H 22.745801 v -0.509389 h -9.06712 l 9.406712,-16.470233 z m 14.976035,11.274469 c 0,3.633639 2.648822,6.044746 6.588094,6.044746 2.343188,0 4.652416,-1.697962 5.603275,-4.109069 v 2.003595 c 0,1.222534 0.47543,1.765881 1.596085,1.765881 h 2.512984 V 25.346205 h -0.169796 l -3.905313,3.15821 -0.03396,8.52377 c -0.679185,2.24131 -2.20735,3.565721 -4.210946,3.565721 -2.479025,0 -3.905313,-1.562126 -3.905313,-4.278865 V 25.346205 h -0.169796 l -3.905314,3.15821 z m 21.903692,-3.633639 c 0,-4.312824 2.037554,-7.301238 4.95805,-7.301238 2.139432,0 3.531761,1.324411 3.531761,3.361966 0,2.580902 -1.935677,4.00719 -5.433479,4.00719 H 45.838073 Z M 50.898,25.142449 c -5.229724,0 -9.474629,3.939272 -9.474629,8.761486 0,4.992008 4.075109,8.761485 9.474629,8.761485 4.04115,0 6.28246,-1.562125 8.218137,-5.739113 h -0.169796 c -1.833799,3.294047 -3.565721,4.550539 -6.146623,4.550539 -3.871354,0 -6.689972,-3.226128 -6.961645,-7.912504 H 59.01426 c 0,-4.992009 -3.294047,-8.421893 -8.11626,-8.421893 z"
       id="text17"
       aria-label="zuk" />
  </g>
</svg>
