<?xml version="1.0" encoding="UTF-8" standalone="no"?>

<!-- <svg
   width="793.06573"
   height="275.19977"
   viewBox="0 0 209.83197 72.813274"
   version="1.1"
   id="svg1"
   xmlns="http://www.w3.org/2000/svg"
   xmlns:svg="http://www.w3.org/2000/svg">
  <defs
     id="defs1" />
  <g
     id="layer1"
     transform="translate(-26.794649,-23.635114)">
    <path
       d="m 28.205761,24.481781 v 2.116665 H 65.882396 L 26.794651,95.037277 H 85.496824 V 92.920612 H 47.820189 L 86.907934,24.481781 Z M 90.435738,71.33063 c 0,15.098877 11.006662,25.117757 27.375532,25.117757 9.73666,0 19.33221,-7.055549 23.28331,-17.07443 v 8.325549 c 0,5.079995 1.97556,7.337771 6.63222,7.337771 h 10.44221 V 24.481781 h -0.70555 l -16.22777,13.123322 -0.14111,35.418859 c -2.82222,9.313326 -9.17221,14.816655 -17.49776,14.816655 -10.3011,0 -16.22776,-6.491106 -16.22776,-17.779985 V 24.481781 H 106.6635 L 90.435738,37.605103 Z M 181.45224,56.231754 c 0,-17.921096 8.46666,-30.338863 20.6022,-30.338863 8.88999,0 14.67554,5.503329 14.67554,13.969988 0,10.724436 -8.04332,16.651097 -22.57775,16.651097 h -12.69999 z m 21.02553,-32.596639 c -21.73109,0 -39.36996,16.368875 -39.36996,36.406636 0,20.743316 16.93332,36.406636 39.36996,36.406636 16.79221,0 26.10554,-6.491106 34.14886,-23.847758 h -0.70555 c -7.61999,13.687767 -14.81665,18.908873 -25.54109,18.908873 -16.08665,0 -27.79887,-13.405544 -28.92775,-32.878861 h 54.75106 c 0,-20.743316 -13.68777,-34.995526 -33.72553,-34.995526 z"
       id="text1"
       style="font-size:141.111px;font-family:Milky;-inkscape-font-specification:Milky;fill:#fff3b1;fill-opacity:0.85098;fill-rule:evenodd;stroke-width:0.264583;stroke-opacity:0.661323"
       aria-label="zuk" />
  </g>
</svg> -->

<svg
   width="793.06573"
   height="275.19977"
   viewBox="0 0 209.83197 72.813274"
   version="1.1"
   id="svg1"
   xmlns="http://www.w3.org/2000/svg"
   xmlns:svg="http://www.w3.org/2000/svg">
  <defs
     id="defs1" />
  <g
     id="layer1"
     transform="translate(-26.794649,-23.635114)">
    <path
       d="m 28.205761,24.481781 v 2.116665 H 65.882396 L 26.794651,95.037277 H 85.496824 V 92.920612 H 47.820189 L 86.907934,24.481781 Z M 90.435738,71.33063 c 0,15.098877 11.006662,25.117757 27.375532,25.117757 9.73666,0 19.33221,-7.055549 23.28331,-17.07443 v 8.325549 c 0,5.079995 1.97556,7.337771 6.63222,7.337771 h 10.44221 V 24.481781 h -0.70555 l -16.22777,13.123322 -0.14111,35.418859 c -2.82222,9.313326 -9.17221,14.816655 -17.49776,14.816655 -10.3011,0 -16.22776,-6.491106 -16.22776,-17.779985 V 24.481781 H 106.6635 L 90.435738,37.605103 Z M 181.45224,24.481781 v 70.555496 h 17.07443 v -32.173306 l 20.74332,32.173306 h 19.14109 l -27.09331,-37.112192 27.09331,-33.443304 h -19.14109 l -20.74332,30.903304 V 24.481781 Z"
       id="text1"
       style="font-size:141.111px;font-family:Milky;-inkscape-font-specification:Milky;fill:#fff3b1;fill-opacity:0.85098;fill-rule:evenodd;stroke-width:0.264583;stroke-opacity:0.661323"
       aria-label="zuk" />
  </g>
</svg>
